<?xml version="1.0" encoding="utf-8"?>
<!-- Generator: Adobe Illustrator 22.0.1, SVG Export Plug-In . SVG Version: 6.00 Build 0)  -->
<svg version="1.1" id="Layer_1" xmlns="http://www.w3.org/2000/svg" xmlns:xlink="http://www.w3.org/1999/xlink" x="0px" y="0px"
	 viewBox="0 0 282.3 61.3" style="enable-background:new 0 0 282.3 61.3;" xml:space="preserve">
<style type="text/css">
	.st0{fill-rule:evenodd;clip-rule:evenodd;fill:url(#SVGID_1_);}
	.st1{fill:#fff;}
</style>
<linearGradient id="SVGID_1_" gradientUnits="userSpaceOnUse" x1="47.3958" y1="61.3377" x2="47.3958" y2="0.7911">
	<stop  offset="0" style="stop-color:#fff"/>
	<stop  offset="1" style="stop-color:#fff"/>
</linearGradient>
<path class="st0" d="M14.8,0.8h9.1h25.3l-9.1,9.1H23.9v23.9L52.5,5.1l4.1-4.3h0.2h12.8h9.5h12.6H92L63.1,29.7l31.7,31.7H83.6H82
	H69.7H57.8h-1L44.1,48.6L31.5,61.3H18.6l25.5-25.5l0.1,0.1l0,0l16.4,16.4h12.3L50.4,29.7l0.2-0.2l-0.1-0.1L70.1,9.9h-9.5L23.9,46.6
	v0.1h-9.1v0v-3.9V9.9V0.8L14.8,0.8z M0,0.8h9.1v60.4H0V0.8L0,0.8z"/>
<path class="st1" d="M109.2,23.6V4.7h15.3V0h-20v23.6H109.2L109.2,23.6z M131.6,11.8V4.7h11.8v7.1H131.6L131.6,11.8z M131.6,23.6v-7
	h14.1l2.3-2.4V2.4L145.7,0h-18.8v23.6H131.6L131.6,23.6z M155.4,11.8V9.5l4.7-4.8h7.1v7.1H155.4L155.4,11.8z M155.4,23.6v-7h11.8v7
	h4.7V0h-14.1l-7,7.1v16.5H155.4L155.4,23.6z M180,23.6v-9.4h11.8v9.4h4.7V0h-4.7v9.5H180V0h-4.7v23.6H180L180,23.6z M205.5,18.9V9.4
	l4.7-4.7h4.7v14.2H205.5L205.5,18.9z M222,23.6v-4.7h-2.4V0h-11.8l-7.1,7.1v11.8h-2.3v4.7H222L222,23.6z M109.2,61.3v-9.4h7l4.7,4.7
	v4.7h4.7v-7l-4.7-4.7l4.7-4.7v-7.1h-4.7v4.8l-4.7,4.7h-7v-9.5h-4.7v23.6H109.2L109.2,61.3z M133.4,56.6V42.5h11.8v14.2H133.4
	L133.4,56.6z M147.5,61.3l2.3-2.3V40.1l-2.3-2.4H131l-2.3,2.4V59l2.3,2.3H147.5L147.5,61.3z M157.9,61.3V45.4l6.3,9.1h3.9l6.2-9.1
	v15.9h4.7V37.7h-4.6l-8.4,11.4l-8.2-11.4h-4.7v23.6H157.9L157.9,61.3z M184.4,37.7l-2.3,2.4v15.4l2.3,2.3h9.4v3.5h4.7v-3.5h9.4
	l2.4-2.3V40.1l-2.4-2.4h-9.4v-3.5h-4.7v3.5H184.4L184.4,37.7z M186.8,53.1V42.5h7v10.7H186.8L186.8,53.1z M198.6,53.1V42.5h7.1v10.7
	H198.6L198.6,53.1z M218.1,56.6V42.5h11.8v14.2H218.1L218.1,56.6z M232.2,61.3l2.3-2.3V40.1l-2.3-2.4h-16.5l-2.3,2.4V59l2.3,2.3
	H232.2L232.2,61.3z M242.7,49.6v-7.1h11.8v7.1H242.7L242.7,49.6z M242.7,61.3v-7h14.1l2.3-2.4V40.1l-2.3-2.4h-18.8v23.6H242.7
	L242.7,61.3z M274.1,61.3V42.5h8.2v-4.7h-21.2v4.7h8.3v18.9H274.1L274.1,61.3z"/>
</svg>
